<svg xmlns="http://www.w3.org/2000/svg" width="50" height="76.594" viewBox="0 0 50 76.594">
  <path id="Trazado_1368" data-name="Trazado 1368" d="M384.05,290.886a9.979,9.979,0,0,1-9.977-9.969v-.008a9.978,9.978,0,0,1,7.8-9.741,9.7,9.7,0,0,1,2.173-.24h0v-9.965a24.941,24.941,0,1,0-49.882,0v9.965a9.784,9.784,0,0,1,2.181.253,9.973,9.973,0,0,1,7.754,9.7l.051.038h-.051a9.978,9.978,0,0,1-9.977,9.965h-.017l18.263,18.208,1.742,1.738,1.793,1.784h0a1.8,1.8,0,0,0,.595-3.493l-1.472-23.553-.916-14.631v0a9.964,9.964,0,0,0-5.164-8.737,9.857,9.857,0,0,0-4.64-1.236h-.177a4.983,4.983,0,0,0-4.312,2.481,4.963,4.963,0,0,1-.671-2.5,4.981,4.981,0,0,1,4.982-4.983c.084,0,.173,0,.257.008h29.459c.063,0,.131-.008.194-.008h.064a4.978,4.978,0,0,1,4.978,4.983,5.066,5.066,0,0,1-.164,1.274,4.867,4.867,0,0,1-.519,1.24,4.971,4.971,0,0,0-4.315-2.5h-.186a9.828,9.828,0,0,0-4.62,1.224,9.961,9.961,0,0,0-5.189,8.75l-.915,14.635-1.468,23.557a1.8,1.8,0,0,0,.6,3.489l1.8-1.789,1.738-1.734,18.262-18.208Z" transform="translate(-334.113 -236.022)" fill="#fff"/>
</svg>
